<?xml version="1.0" encoding="UTF-8" standalone="no"?>
<!DOCTYPE svg PUBLIC "-//W3C//DTD SVG 1.1//EN"
 "http://www.w3.org/Graphics/SVG/1.1/DTD/svg11.dtd">
<!-- Generated by graphviz version 2.40.1 (20161225.0304)
 -->
<!-- Title: G Pages: 1 -->
<svg width="410pt" height="422pt"
 viewBox="0.00 0.00 409.92 422.00" xmlns="http://www.w3.org/2000/svg" xmlns:xlink="http://www.w3.org/1999/xlink">
<g id="graph0" class="graph" transform="scale(1 1) rotate(0) translate(4 418)">
<title>G</title>
<polygon fill="#ffffff" stroke="transparent" points="-4,4 -4,-418 405.918,-418 405.918,4 -4,4"/>
<!-- Relation -->
<g id="node1" class="node">
<title>Relation</title>
<polygon fill="none" stroke="#000000" points="0,-123.5 0,-181.5 127.3301,-181.5 127.3301,-123.5 0,-123.5"/>
<text text-anchor="middle" x="63.665" y="-166.3" font-family="Times,serif" font-size="14.00" fill="#000000">Relation</text>
<polyline fill="none" stroke="#000000" points="0,-159.5 127.3301,-159.5 "/>
<text text-anchor="start" x="8" y="-144.3" font-family="Times,serif" font-size="14.00" fill="#000000">+ dst_id : string</text>
<text text-anchor="start" x="8" y="-130.3" font-family="Times,serif" font-size="14.00" fill="#000000"> + dst_name : string</text>
</g>
<!-- Entity -->
<g id="node6" class="node">
<title>Entity</title>
<polygon fill="none" stroke="#000000" points="49.6802,-.5 49.6802,-86.5 231.6499,-86.5 231.6499,-.5 49.6802,-.5"/>
<text text-anchor="middle" x="140.665" y="-71.3" font-family="Times,serif" font-size="14.00" fill="#000000">Entity</text>
<polyline fill="none" stroke="#000000" points="49.6802,-64.5 231.6499,-64.5 "/>
<text text-anchor="start" x="57.6802" y="-49.3" font-family="Times,serif" font-size="14.00" fill="#000000">+ id : [&quot;null&quot;, &quot;string&quot;]</text>
<text text-anchor="start" x="57.6802" y="-35.3" font-family="Times,serif" font-size="14.00" fill="#000000"> + name : string</text>
<text text-anchor="start" x="57.6802" y="-21.3" font-family="Times,serif" font-size="14.00" fill="#000000"> + object : [&quot;Metadata&quot;]</text>
<text text-anchor="middle" x="140.665" y="-7.3" font-family="Times,serif" font-size="14.00" fill="#000000"> + relations : array&lt;Relation&gt;</text>
</g>
<!-- Relation&#45;&gt;Entity -->
<g id="edge5" class="edge">
<title>Relation&#45;&gt;Entity</title>
<path fill="none" stroke="#000000" d="M84.2996,-123.29C90.1228,-115.0468 96.6467,-105.8117 103.1338,-96.6286"/>
<polygon fill="none" stroke="#000000" points="103.2,-96.5349 103.3948,-89.3264 110.1237,-86.7338 109.9289,-93.9423 103.2,-96.5349"/>
<text text-anchor="middle" x="73.7996" y="-112.09" font-family="Times,serif" font-size="14.00" fill="#000000">0..*</text>
</g>
<!-- Property -->
<g id="node2" class="node">
<title>Property</title>
<polygon fill="none" stroke="#000000" points="30.4102,-341.5 30.4102,-413.5 212.9199,-413.5 212.9199,-341.5 30.4102,-341.5"/>
<text text-anchor="middle" x="121.665" y="-398.3" font-family="Times,serif" font-size="14.00" fill="#000000">Property</text>
<polyline fill="none" stroke="#000000" points="30.4102,-391.5 212.9199,-391.5 "/>
<text text-anchor="start" x="38.4102" y="-376.3" font-family="Times,serif" font-size="14.00" fill="#000000">+ name : string</text>
<text text-anchor="start" x="38.4102" y="-362.3" font-family="Times,serif" font-size="14.00" fill="#000000"> + ontology_reference : string</text>
<text text-anchor="start" x="38.4102" y="-348.3" font-family="Times,serif" font-size="14.00" fill="#000000"> + values : map&lt;string&gt;</text>
</g>
<!-- Node -->
<g id="node4" class="node">
<title>Node</title>
<polygon fill="none" stroke="#000000" points="123.4043,-218.5 123.4043,-304.5 313.9258,-304.5 313.9258,-218.5 123.4043,-218.5"/>
<text text-anchor="middle" x="218.665" y="-289.3" font-family="Times,serif" font-size="14.00" fill="#000000">Node</text>
<polyline fill="none" stroke="#000000" points="123.4043,-282.5 313.9258,-282.5 "/>
<text text-anchor="start" x="131.4043" y="-267.3" font-family="Times,serif" font-size="14.00" fill="#000000">+ name : string</text>
<text text-anchor="start" x="131.4043" y="-253.3" font-family="Times,serif" font-size="14.00" fill="#000000"> + ontology_reference : string</text>
<text text-anchor="start" x="131.4043" y="-239.3" font-family="Times,serif" font-size="14.00" fill="#000000"> + links : array&lt;Link&gt;</text>
<text text-anchor="middle" x="218.665" y="-225.3" font-family="Times,serif" font-size="14.00" fill="#000000"> + properties : array&lt;Property&gt;</text>
</g>
<!-- Property&#45;&gt;Node -->
<g id="edge1" class="edge">
<title>Property&#45;&gt;Node</title>
<path fill="none" stroke="#000000" d="M151.8247,-341.4327C159.0068,-332.8439 166.8182,-323.5025 174.4844,-314.3346"/>
<polygon fill="none" stroke="#000000" points="174.6906,-314.0879 175.471,-306.9192 182.3885,-304.8823 181.6081,-312.0511 174.6906,-314.0879"/>
<text text-anchor="middle" x="141.3247" y="-330.2327" font-family="Times,serif" font-size="14.00" fill="#000000">0..*</text>
</g>
<!-- Link -->
<g id="node3" class="node">
<title>Link</title>
<polygon fill="none" stroke="#000000" points="231.4121,-348.5 231.4121,-406.5 401.918,-406.5 401.918,-348.5 231.4121,-348.5"/>
<text text-anchor="middle" x="316.665" y="-391.3" font-family="Times,serif" font-size="14.00" fill="#000000">Link</text>
<polyline fill="none" stroke="#000000" points="231.4121,-384.5 401.918,-384.5 "/>
<text text-anchor="start" x="239.4121" y="-369.3" font-family="Times,serif" font-size="14.00" fill="#000000">+ multiplicity : Multiplicity</text>
<text text-anchor="start" x="239.4121" y="-355.3" font-family="Times,serif" font-size="14.00" fill="#000000"> + dst : string</text>
</g>
<!-- Link&#45;&gt;Node -->
<g id="edge2" class="edge">
<title>Link&#45;&gt;Node</title>
<path fill="none" stroke="#000000" d="M291.9355,-348.2283C283.1661,-337.8482 273.0092,-325.8257 263.1031,-314.1002"/>
<polygon fill="none" stroke="#000000" points="262.988,-313.9639 256.0603,-311.9619 255.2437,-304.7972 262.1714,-306.7991 262.988,-313.9639"/>
<text text-anchor="middle" x="281.4355" y="-337.0283" font-family="Times,serif" font-size="14.00" fill="#000000">0..*</text>
</g>
<!-- Metadata -->
<g id="node5" class="node">
<title>Metadata</title>
<polygon fill="none" stroke="#000000" points="145.7578,-130.5 145.7578,-174.5 291.5723,-174.5 291.5723,-130.5 145.7578,-130.5"/>
<text text-anchor="middle" x="218.665" y="-159.3" font-family="Times,serif" font-size="14.00" fill="#000000">Metadata</text>
<polyline fill="none" stroke="#000000" points="145.7578,-152.5 291.5723,-152.5 "/>
<text text-anchor="middle" x="218.665" y="-137.3" font-family="Times,serif" font-size="14.00" fill="#000000">+ nodes : array&lt;Node&gt;</text>
</g>
<!-- Node&#45;&gt;Metadata -->
<g id="edge3" class="edge">
<title>Node&#45;&gt;Metadata</title>
<path fill="none" stroke="#000000" d="M218.665,-218.4203C218.665,-207.8765 218.665,-196.7356 218.665,-186.6736"/>
<polygon fill="none" stroke="#000000" points="218.6651,-186.6316 214.6651,-180.6317 218.665,-174.6316 222.6651,-180.6316 218.6651,-186.6316"/>
<text text-anchor="middle" x="208.165" y="-207.2203" font-family="Times,serif" font-size="14.00" fill="#000000">0..*</text>
</g>
<!-- Metadata&#45;&gt;Entity -->
<g id="edge4" class="edge">
<title>Metadata&#45;&gt;Entity</title>
<path fill="none" stroke="#000000" d="M202.8806,-130.4422C195.8555,-120.6251 187.2503,-108.6 178.7065,-96.6606"/>
<polygon fill="none" stroke="#000000" points="178.5636,-96.4608 171.819,-93.9092 171.5802,-86.702 178.3248,-89.2536 178.5636,-96.4608"/>
<text text-anchor="middle" x="199.3806" y="-119.2422" font-family="Times,serif" font-size="14.00" fill="#000000">1</text>
</g>
</g>
</svg>
