<?xml version="1.0" encoding="UTF-8" standalone="no"?>
<!DOCTYPE svg PUBLIC "-//W3C//DTD SVG 1.1//EN"
 "http://www.w3.org/Graphics/SVG/1.1/DTD/svg11.dtd">
<!-- Generated by graphviz version 2.40.1 (20161225.0304)
 -->
<!-- Title: G Pages: 1 -->
<svg width="762pt" height="615pt"
 viewBox="0.00 0.00 762.40 615.00" xmlns="http://www.w3.org/2000/svg" xmlns:xlink="http://www.w3.org/1999/xlink">
<g id="graph0" class="graph" transform="scale(1 1) rotate(0) translate(4 611)">
<title>G</title>
<polygon fill="#ffffff" stroke="transparent" points="-4,4 -4,-611 758.4023,-611 758.4023,4 -4,4"/>
<!-- Multiplicity -->
<g id="node1" class="node">
<title>Multiplicity</title>
<polygon fill="none" stroke="#000000" points="0,-506.5 0,-606.5 137.4746,-606.5 137.4746,-506.5 0,-506.5"/>
<text text-anchor="start" x="8" y="-591.3" font-family="Times,serif" font-size="14.00" fill="#000000">&lt;&lt;enumeration&gt;&gt;</text>
<text text-anchor="middle" x="68.7373" y="-577.3" font-family="Times,serif" font-size="14.00" fill="#000000"> Multiplicity</text>
<polyline fill="none" stroke="#000000" points="0,-570.5 137.4746,-570.5 "/>
<text text-anchor="start" x="8" y="-555.3" font-family="Times,serif" font-size="14.00" fill="#000000">ONE_TO_ONE</text>
<text text-anchor="start" x="8" y="-541.3" font-family="Times,serif" font-size="14.00" fill="#000000"> ONE_TO_MANY</text>
<text text-anchor="start" x="8" y="-527.3" font-family="Times,serif" font-size="14.00" fill="#000000"> MANY_TO_ONE</text>
<text text-anchor="start" x="8" y="-513.3" font-family="Times,serif" font-size="14.00" fill="#000000"> MANY_TO_MANY</text>
</g>
<!-- Gender -->
<g id="node2" class="node">
<title>Gender</title>
<polygon fill="none" stroke="#000000" points="9.96,-341.5 9.96,-469.5 127.5146,-469.5 127.5146,-341.5 9.96,-341.5"/>
<text text-anchor="start" x="17.96" y="-454.3" font-family="Times,serif" font-size="14.00" fill="#000000">&lt;&lt;enumeration&gt;&gt;</text>
<text text-anchor="middle" x="68.7373" y="-440.3" font-family="Times,serif" font-size="14.00" fill="#000000"> Gender</text>
<polyline fill="none" stroke="#000000" points="9.96,-433.5 127.5146,-433.5 "/>
<text text-anchor="start" x="17.96" y="-418.3" font-family="Times,serif" font-size="14.00" fill="#000000">Male</text>
<text text-anchor="start" x="17.96" y="-404.3" font-family="Times,serif" font-size="14.00" fill="#000000"> Female</text>
<text text-anchor="start" x="17.96" y="-390.3" font-family="Times,serif" font-size="14.00" fill="#000000"> Unknown</text>
<text text-anchor="start" x="17.96" y="-376.3" font-family="Times,serif" font-size="14.00" fill="#000000"> Other</text>
<text text-anchor="start" x="17.96" y="-362.3" font-family="Times,serif" font-size="14.00" fill="#000000"> Unspecified</text>
<text text-anchor="start" x="17.96" y="-348.3" font-family="Times,serif" font-size="14.00" fill="#000000"> Not Reported</text>
</g>
<!-- Multiplicity&#45;&gt;Gender -->
<!-- Vital_Status -->
<g id="node3" class="node">
<title>Vital_Status</title>
<polygon fill="none" stroke="#000000" points="9.96,-204.5 9.96,-304.5 127.5146,-304.5 127.5146,-204.5 9.96,-204.5"/>
<text text-anchor="start" x="17.96" y="-289.3" font-family="Times,serif" font-size="14.00" fill="#000000">&lt;&lt;enumeration&gt;&gt;</text>
<text text-anchor="middle" x="68.7373" y="-275.3" font-family="Times,serif" font-size="14.00" fill="#000000"> Vital_Status</text>
<polyline fill="none" stroke="#000000" points="9.96,-268.5 127.5146,-268.5 "/>
<text text-anchor="start" x="17.96" y="-253.3" font-family="Times,serif" font-size="14.00" fill="#000000">Alive</text>
<text text-anchor="start" x="17.96" y="-239.3" font-family="Times,serif" font-size="14.00" fill="#000000"> Dead</text>
<text text-anchor="start" x="17.96" y="-225.3" font-family="Times,serif" font-size="14.00" fill="#000000"> Unknown</text>
<text text-anchor="start" x="17.96" y="-211.3" font-family="Times,serif" font-size="14.00" fill="#000000"> Not Reported</text>
</g>
<!-- Gender&#45;&gt;Vital_Status -->
<!-- Property -->
<g id="node4" class="node">
<title>Property</title>
<polygon fill="none" stroke="#000000" points="155.4824,-520.5 155.4824,-592.5 337.9922,-592.5 337.9922,-520.5 155.4824,-520.5"/>
<text text-anchor="middle" x="246.7373" y="-577.3" font-family="Times,serif" font-size="14.00" fill="#000000">Property</text>
<polyline fill="none" stroke="#000000" points="155.4824,-570.5 337.9922,-570.5 "/>
<text text-anchor="start" x="163.4824" y="-555.3" font-family="Times,serif" font-size="14.00" fill="#000000">+ name : string</text>
<text text-anchor="start" x="163.4824" y="-541.3" font-family="Times,serif" font-size="14.00" fill="#000000"> + ontology_reference : string</text>
<text text-anchor="start" x="163.4824" y="-527.3" font-family="Times,serif" font-size="14.00" fill="#000000"> + values : map&lt;string&gt;</text>
</g>
<!-- Node -->
<g id="node6" class="node">
<title>Node</title>
<polygon fill="none" stroke="#000000" points="248.4766,-355.5 248.4766,-455.5 438.998,-455.5 438.998,-355.5 248.4766,-355.5"/>
<text text-anchor="middle" x="343.7373" y="-440.3" font-family="Times,serif" font-size="14.00" fill="#000000">Node</text>
<polyline fill="none" stroke="#000000" points="248.4766,-433.5 438.998,-433.5 "/>
<text text-anchor="start" x="256.4766" y="-418.3" font-family="Times,serif" font-size="14.00" fill="#000000">+ name : string</text>
<text text-anchor="start" x="256.4766" y="-404.3" font-family="Times,serif" font-size="14.00" fill="#000000"> + ontology_reference : string</text>
<text text-anchor="start" x="256.4766" y="-390.3" font-family="Times,serif" font-size="14.00" fill="#000000"> + values : map&lt;string&gt;</text>
<text text-anchor="start" x="256.4766" y="-376.3" font-family="Times,serif" font-size="14.00" fill="#000000"> + links : array&lt;Link&gt;</text>
<text text-anchor="start" x="256.4766" y="-362.3" font-family="Times,serif" font-size="14.00" fill="#000000"> + properties : array&lt;Property&gt;</text>
</g>
<!-- Property&#45;&gt;Node -->
<g id="edge3" class="edge">
<title>Property&#45;&gt;Node</title>
<path fill="none" stroke="#000000" d="M269.9712,-520.3317C280.4697,-503.9887 293.1596,-484.2344 305.0323,-465.7521"/>
<polygon fill="none" stroke="#000000" points="305.0393,-465.7411 304.9168,-458.531 311.5251,-455.6448 311.6477,-462.8549 305.0393,-465.7411"/>
<text text-anchor="middle" x="259.4712" y="-509.1317" font-family="Times,serif" font-size="14.00" fill="#000000">0..*</text>
</g>
<!-- Link -->
<g id="node5" class="node">
<title>Link</title>
<polygon fill="none" stroke="#000000" points="356.4844,-527.5 356.4844,-585.5 526.9902,-585.5 526.9902,-527.5 356.4844,-527.5"/>
<text text-anchor="middle" x="441.7373" y="-570.3" font-family="Times,serif" font-size="14.00" fill="#000000">Link</text>
<polyline fill="none" stroke="#000000" points="356.4844,-563.5 526.9902,-563.5 "/>
<text text-anchor="start" x="364.4844" y="-548.3" font-family="Times,serif" font-size="14.00" fill="#000000">+ multiplicity : Multiplicity</text>
<text text-anchor="start" x="364.4844" y="-534.3" font-family="Times,serif" font-size="14.00" fill="#000000"> + dst : string</text>
</g>
<!-- Link&#45;&gt;Node -->
<g id="edge4" class="edge">
<title>Link&#45;&gt;Node</title>
<path fill="none" stroke="#000000" d="M422.8419,-527.3857C411.5136,-509.9308 396.6803,-487.0755 382.9232,-465.8783"/>
<polygon fill="none" stroke="#000000" points="382.8092,-465.7025 376.1874,-462.8472 376.2763,-455.6366 382.898,-458.4919 382.8092,-465.7025"/>
<text text-anchor="middle" x="408.8419" y="-516.1857" font-family="Times,serif" font-size="14.00" fill="#000000">0..* &#160;</text>
</g>
<!-- Metadata -->
<g id="node7" class="node">
<title>Metadata</title>
<polygon fill="none" stroke="#000000" points="270.8301,-225.5 270.8301,-283.5 416.6445,-283.5 416.6445,-225.5 270.8301,-225.5"/>
<text text-anchor="middle" x="343.7373" y="-268.3" font-family="Times,serif" font-size="14.00" fill="#000000">Metadata</text>
<polyline fill="none" stroke="#000000" points="270.8301,-261.5 416.6445,-261.5 "/>
<text text-anchor="start" x="278.8301" y="-246.3" font-family="Times,serif" font-size="14.00" fill="#000000">+ nodes : array&lt;Node&gt;</text>
<text text-anchor="start" x="278.8301" y="-232.3" font-family="Times,serif" font-size="14.00" fill="#000000"> + misc : map&lt;string&gt;</text>
</g>
<!-- Node&#45;&gt;Metadata -->
<g id="edge5" class="edge">
<title>Node&#45;&gt;Metadata</title>
<path fill="none" stroke="#000000" d="M343.7373,-355.2192C343.7373,-335.9801 343.7373,-314.2727 343.7373,-295.9498"/>
<polygon fill="none" stroke="#000000" points="343.7374,-295.8774 339.7374,-289.8775 343.7373,-283.8774 347.7374,-289.8774 343.7374,-295.8774"/>
<text text-anchor="middle" x="331.4873" y="-344.0192" font-family="Times,serif" font-size="14.00" fill="#000000">0..* </text>
</g>
<!-- Entity -->
<g id="node10" class="node">
<title>Entity</title>
<polygon fill="none" stroke="#000000" points="382.0088,-81.5 382.0088,-167.5 661.4658,-167.5 661.4658,-81.5 382.0088,-81.5"/>
<text text-anchor="middle" x="521.7373" y="-152.3" font-family="Times,serif" font-size="14.00" fill="#000000">Entity</text>
<polyline fill="none" stroke="#000000" points="382.0088,-145.5 661.4658,-145.5 "/>
<text text-anchor="start" x="390.0088" y="-130.3" font-family="Times,serif" font-size="14.00" fill="#000000">+ id : union{null, &quot;string&quot;}</text>
<text text-anchor="start" x="390.0088" y="-116.3" font-family="Times,serif" font-size="14.00" fill="#000000"> + name : string</text>
<text text-anchor="start" x="390.0088" y="-102.3" font-family="Times,serif" font-size="14.00" fill="#000000"> + object : union{&quot;Metadata&quot;, &quot;Demographic&quot;}</text>
<text text-anchor="start" x="390.0088" y="-88.3" font-family="Times,serif" font-size="14.00" fill="#000000"> + relations : array&lt;Relation&gt;</text>
</g>
<!-- Metadata&#45;&gt;Entity -->
<g id="edge7" class="edge">
<title>Metadata&#45;&gt;Entity</title>
<path fill="none" stroke="#000000" d="M383.684,-225.3255C404.0432,-210.4564 429.3827,-191.95 452.7744,-174.8661"/>
<polygon fill="none" stroke="#000000" points="452.9693,-174.7238 455.4555,-167.9548 462.66,-167.6463 460.1738,-174.4153 452.9693,-174.7238"/>
<text text-anchor="middle" x="376.684" y="-214.1255" font-family="Times,serif" font-size="14.00" fill="#000000">1 &#160;</text>
</g>
<!-- Demographic -->
<g id="node8" class="node">
<title>Demographic</title>
<polygon fill="none" stroke="#000000" points="434.8882,-218.5 434.8882,-290.5 608.5864,-290.5 608.5864,-218.5 434.8882,-218.5"/>
<text text-anchor="middle" x="521.7373" y="-275.3" font-family="Times,serif" font-size="14.00" fill="#000000">Demographic</text>
<polyline fill="none" stroke="#000000" points="434.8882,-268.5 608.5864,-268.5 "/>
<text text-anchor="start" x="442.8882" y="-253.3" font-family="Times,serif" font-size="14.00" fill="#000000">+ project_id : string</text>
<text text-anchor="start" x="442.8882" y="-239.3" font-family="Times,serif" font-size="14.00" fill="#000000"> + gender : Gender</text>
<text text-anchor="start" x="442.8882" y="-225.3" font-family="Times,serif" font-size="14.00" fill="#000000"> + vital_status : Vital_Status</text>
</g>
<!-- Demographic&#45;&gt;Entity -->
<g id="edge6" class="edge">
<title>Demographic&#45;&gt;Entity</title>
<path fill="none" stroke="#000000" d="M521.7373,-218.2878C521.7373,-206.4456 521.7373,-193.0058 521.7373,-180.0745"/>
<polygon fill="none" stroke="#000000" points="521.7374,-179.9011 517.7374,-173.9011 521.7373,-167.9011 525.7374,-173.901 521.7374,-179.9011"/>
<text text-anchor="middle" x="518.2373" y="-207.0878" font-family="Times,serif" font-size="14.00" fill="#000000">1</text>
</g>
<!-- Relation -->
<g id="node9" class="node">
<title>Relation</title>
<polygon fill="none" stroke="#000000" points="627.0723,-225.5 627.0723,-283.5 754.4023,-283.5 754.4023,-225.5 627.0723,-225.5"/>
<text text-anchor="middle" x="690.7373" y="-268.3" font-family="Times,serif" font-size="14.00" fill="#000000">Relation</text>
<polyline fill="none" stroke="#000000" points="627.0723,-261.5 754.4023,-261.5 "/>
<text text-anchor="start" x="635.0723" y="-246.3" font-family="Times,serif" font-size="14.00" fill="#000000">+ dst_id : string</text>
<text text-anchor="start" x="635.0723" y="-232.3" font-family="Times,serif" font-size="14.00" fill="#000000"> + dst_name : string</text>
</g>
<!-- Relation&#45;&gt;Entity -->
<g id="edge8" class="edge">
<title>Relation&#45;&gt;Entity</title>
<path fill="none" stroke="#000000" d="M652.8104,-225.3255C633.5669,-210.5228 609.637,-192.1152 587.5108,-175.095"/>
<polygon fill="none" stroke="#000000" points="587.339,-174.9629 580.1444,-174.4751 577.8275,-167.6463 585.0221,-168.1341 587.339,-174.9629"/>
<text text-anchor="middle" x="677.3104" y="-214.1255" font-family="Times,serif" font-size="14.00" fill="#000000"> &#160;0..* &#160;&#160;&#160;&#160;&#160;</text>
</g>
<!-- PFB -->
<g id="node11" class="node">
<title>PFB</title>
<polygon fill="none" stroke="#000000" points="468.6577,-.5 468.6577,-44.5 574.8169,-44.5 574.8169,-.5 468.6577,-.5"/>
<text text-anchor="middle" x="521.7373" y="-29.3" font-family="Times,serif" font-size="14.00" fill="#000000">PFB</text>
<polyline fill="none" stroke="#000000" points="468.6577,-22.5 574.8169,-22.5 "/>
<text text-anchor="start" x="476.6577" y="-7.3" font-family="Times,serif" font-size="14.00" fill="#000000">+ array&lt;Entity&gt;</text>
</g>
<!-- Entity&#45;&gt;PFB -->
<g id="edge9" class="edge">
<title>Entity&#45;&gt;PFB</title>
<path fill="none" stroke="#000000" d="M521.7373,-81.2428C521.7373,-73.0745 521.7373,-64.6349 521.7373,-56.7886"/>
<polygon fill="none" stroke="#000000" points="521.7374,-56.6875 517.7374,-50.6875 521.7373,-44.6875 525.7374,-50.6875 521.7374,-56.6875"/>
<text text-anchor="middle" x="511.2373" y="-70.0428" font-family="Times,serif" font-size="14.00" fill="#000000">1..*</text>
</g>
</g>
</svg>
